<svg width="31" height="31" viewBox="0 0 31 31" fill="none" xmlns="http://www.w3.org/2000/svg">
<mask id="mask0_11362_22569" style="mask-type:alpha" maskUnits="userSpaceOnUse" x="0" y="0" width="31" height="31">
<rect x="0.199951" y="0.200195" width="30" height="30" fill="#C4C4C4"/>
</mask>
<g mask="url(#mask0_11362_22569)">
<path d="M26.6328 14.7408V11.5083H24.9492V14.7408H21.582V16.3571H24.9492V19.5896H26.6328V16.3571H30V14.7408H26.6328Z" fill="white"/>
<path d="M10.1285 14.5424V18.3424H15.5036C14.7189 20.554 12.6061 22.1424 10.1285 22.1424C6.98594 22.1424 4.42854 19.585 4.42854 16.4424C4.42854 13.2998 6.98594 10.7424 10.1285 10.7424C11.4908 10.7424 12.8018 11.2307 13.8202 12.118L16.3168 9.25278C14.6068 7.76318 12.4104 6.94238 10.1285 6.94238C4.89024 6.94238 0.62854 11.2041 0.62854 16.4424C0.62854 21.6807 4.89024 25.9424 10.1285 25.9424C15.3668 25.9424 19.6285 21.6807 19.6285 16.4424V14.5424H10.1285Z" fill="white"/>
</g>
</svg>
