<svg width="50" height="50" viewBox="0 0 50 50" fill="none" xmlns="http://www.w3.org/2000/svg">
<mask id="mask0_534_6599" style="mask-type:alpha" maskUnits="userSpaceOnUse" x="10" y="10" width="30" height="30">
<rect x="10" y="10" width="30" height="30" fill="#C4C4C4"/>
</mask>
<g mask="url(#mask0_534_6599)">
<path d="M18 25C18 25.466 18.1681 25.9319 18.5035 26.2872L29.0639 37.4666C29.7357 38.1778 30.8249 38.1778 31.4964 37.4666C32.1679 36.7558 32.1679 35.603 31.4964 34.8918L22.1519 25L31.496 15.1083C32.1676 14.3971 32.1676 13.2444 31.496 12.5336C30.8245 11.8221 29.7354 11.8221 29.0636 12.5336L18.5032 23.7129C18.1677 24.0683 18 24.5342 18 25Z" fill="#00730C"/>
</g>
<rect x="0.5" y="0.5" width="49" height="49" rx="4.5" stroke="#00730C"/>
</svg>
