<svg width="52" height="52" viewBox="0 0 52 52" fill="none" xmlns="http://www.w3.org/2000/svg">
<rect x="51.1817" y="50.817" width="50" height="50" rx="5" transform="rotate(179.582 51.1817 50.817)" fill="#00730C"/>
<mask id="mask0_1_20" style="mask-type:alpha" maskUnits="userSpaceOnUse" x="10" y="10" width="32" height="32">
<rect x="41.109" y="40.8902" width="30" height="30" transform="rotate(179.582 41.109 40.8902)" fill="#C4C4C4"/>
</mask>
<g mask="url(#mask0_1_20)">
<path d="M19.0002 26.051C18.9968 25.5851 19.1615 25.1179 19.4943 24.7602L29.9729 13.5041C30.6395 12.788 31.7286 12.7801 32.4053 13.4863C33.0819 14.1923 33.0903 15.345 32.424 16.0611L23.152 26.0207L32.568 35.8441C33.2447 36.5503 33.2531 37.703 32.5868 38.4187C31.9205 39.135 30.8314 39.143 30.1544 38.4364L19.5127 27.3345C19.1747 26.9815 19.0036 26.5168 19.0002 26.051Z" fill="white"/>
</g>
</svg>
