<svg width="52" height="52" viewBox="0 0 52 52" fill="none" xmlns="http://www.w3.org/2000/svg">
<mask id="mask0_1_7" style="mask-type:alpha" maskUnits="userSpaceOnUse" x="10" y="10" width="32" height="32">
<rect x="41.0897" y="40.9098" width="30" height="30" transform="rotate(179.656 41.0897 40.9098)" fill="#C4C4C4"/>
</mask>
<g mask="url(#mask0_1_7)">
<path d="M32.9999 25.958C32.9971 25.492 32.8262 25.0271 32.4887 24.6739L21.8614 13.558C21.1853 12.8509 20.0962 12.8574 19.429 13.5726C18.7617 14.2874 18.7687 15.4402 19.4444 16.1474L28.848 25.9829L19.5634 35.9305C18.8962 36.6457 18.9031 37.7983 19.5788 38.5051C20.2546 39.2126 21.3438 39.206 22.0112 38.4905L32.5044 27.2481C32.8378 26.8907 33.0027 26.4238 32.9999 25.958Z" fill="#00730C"/>
</g>
<rect x="50.6465" y="50.3526" width="49" height="49" rx="4.5" transform="rotate(179.656 50.6465 50.3526)" stroke="#00730C"/>
</svg>
