<svg width="31" height="27" viewBox="0 0 31 27" fill="none" xmlns="http://www.w3.org/2000/svg">
<path d="M17.2578 7.34766C17.7432 7.34766 18.1367 6.95416 18.1367 6.46875C18.1367 5.98334 17.7432 5.58984 17.2578 5.58984C16.7724 5.58984 16.3789 5.98334 16.3789 6.46875C16.3789 6.95416 16.7724 7.34766 17.2578 7.34766Z" fill="#00730C"/>
<path d="M20.7734 7.34766C21.2588 7.34766 21.6523 6.95416 21.6523 6.46875C21.6523 5.98334 21.2588 5.58984 20.7734 5.58984C20.288 5.58984 19.8945 5.98334 19.8945 6.46875C19.8945 6.95416 20.288 7.34766 20.7734 7.34766Z" fill="#00730C"/>
<path d="M24.2891 7.34766C24.7745 7.34766 25.168 6.95416 25.168 6.46875C25.168 5.98334 24.7745 5.58984 24.2891 5.58984C23.8037 5.58984 23.4102 5.98334 23.4102 6.46875C23.4102 6.95416 23.8037 7.34766 24.2891 7.34766Z" fill="#00730C"/>
<path d="M20.2586 26.6836C21.7055 26.6836 22.8828 25.5008 22.8828 24.0469V20.5312C22.8828 20.1531 22.641 19.8175 22.2825 19.6976L17.0215 17.9398C16.7639 17.8538 16.4813 17.8916 16.2554 18.0421L14.0182 19.5336C11.6171 18.3943 8.77924 15.5816 7.65049 13.2232L9.14147 10.9867C9.29199 10.7609 9.32979 10.4781 9.24377 10.2207L7.48596 4.95973C7.36613 4.60113 7.03045 4.35938 6.65234 4.35938H3.13672C1.68283 4.35938 0.5 5.53658 0.5 6.98361C0.5 11.8397 2.70805 16.8236 6.55801 20.6575C10.4038 24.4871 15.3975 26.6836 20.2586 26.6836ZM3.13672 6.11719H6.01936L7.44025 10.3697L5.92109 12.6484C5.76055 12.8892 5.72885 13.1936 5.83637 13.4623C6.42084 14.9235 7.59049 16.5669 9.1298 18.0898C10.659 19.6026 12.3104 20.7595 13.7799 21.3472C14.0485 21.4547 14.353 21.423 14.5938 21.2625L16.8726 19.7433L21.125 21.1642V24.0469C21.125 24.5397 20.7444 24.9258 20.2586 24.9258C11.0059 24.9258 2.25781 16.2062 2.25781 6.98361C2.25781 6.49775 2.64389 6.11719 3.13672 6.11719Z" fill="#00730C"/>
<path d="M16.9215 16.0698C17.2498 16.2059 17.6279 16.1306 17.8793 15.8793L21.1375 12.6211H24.2891C27.7138 12.6211 30.5 9.86115 30.5 6.46875C30.5 3.07635 27.7138 0.316406 24.2891 0.316406H17.2578C13.8654 0.316406 11.1055 3.07635 11.1055 6.46875C11.1055 9.56279 13.4013 12.1307 16.3789 12.5585V15.2578C16.3789 15.6133 16.5931 15.9337 16.9215 16.0698ZM12.8633 6.46875C12.8633 4.04561 14.8347 2.07422 17.2578 2.07422H24.2891C26.7445 2.07422 28.7422 4.04561 28.7422 6.46875C28.7422 8.89189 26.7445 10.8633 24.2891 10.8633H20.7734C20.5403 10.8633 20.3168 10.9559 20.152 11.1207L18.1367 13.136V11.7422C18.1367 11.2568 17.7432 10.8633 17.2578 10.8633C14.8347 10.8633 12.8633 8.89189 12.8633 6.46875Z" fill="#00730C"/>
</svg>
